# xmcd CD database file
#
# Track frame offsets:
#	182
#	20582
#	50695
#	69835
#	97605
#	113440
#	130177
#	147262
#	169785
#	189925
#	207687
#
# Disc length: 2965 seconds
#
# Revision: 7
# Processed by: cddbd v1.5.2PL0 Copyright (c) Steve Scherf et al.
# Submitted via: CDex 1.51
#
DISCID=900b930b
DTITLE=Tadeusz Nalepa - Jestes W Piekle
DYEAR=1993
DGENRE=Blues
TTITLE0=Wilczych Praw Dzis Czas
TTITLE1=Jestes W Piekle
TTITLE2=Kiedy Znow Zaczne Watpic
TTITLE3=Zawsze Wierny Mi
TTITLE4=Kiedys Ci Wierzylem
TTITLE5=Znam Cie Zycie
TTITLE6=Slowa
TTITLE7=Tak Jak Ja
TTITLE8=Lza Nie Zyskasz Nic
TTITLE9=Takie Jest Zycie
TTITLE10=Zyj Chwila
EXTD=YEAR: 1993
EXTT0=
EXTT1=
EXTT2=
EXTT3=
EXTT4=
EXTT5=
EXTT6=
EXTT7=
EXTT8=
EXTT9=
EXTT10=
PLAYORDER=
